<svg width="43" height="43" viewBox="0 0 43 43" fill="none" xmlns="http://www.w3.org/2000/svg">
<g filter="url(#filter0_d_355_1087)">
<circle cx="21.5" cy="17.5" r="17.5" fill="white"/>
</g>
<path d="M26.3121 27C25.5654 27 24.9308 26.736 24.4081 26.208C23.8855 25.68 23.6241 25.0389 23.6241 24.2846C23.6241 24.179 23.6359 24.0499 23.6595 23.8972C23.6831 23.7445 23.7184 23.6071 23.7656 23.485L16.6214 19.305C16.3856 19.5742 16.0948 19.7919 15.749 19.9581C15.4031 20.1244 15.0495 20.2075 14.6879 20.2075C13.9413 20.2075 13.3066 19.9443 12.784 19.4178C12.2613 18.8914 12 18.2521 12 17.5C12 16.7479 12.2613 16.1086 12.784 15.5822C13.3066 15.0557 13.9413 14.7925 14.6879 14.7925C15.0495 14.7925 15.3953 14.8637 15.7254 15.0062C16.0555 15.1487 16.3541 15.3546 16.6214 15.6237L23.7656 11.4913C23.7184 11.3793 23.6831 11.2533 23.6595 11.1134C23.6359 10.9734 23.6241 10.8381 23.6241 10.7075C23.6241 9.95542 23.8855 9.31615 24.4081 8.78969C24.9308 8.26323 25.5654 8 26.3121 8C27.0587 8 27.6934 8.26323 28.216 8.78969C28.7387 9.31615 29 9.95542 29 10.7075C29 11.4596 28.7387 12.0989 28.216 12.6253C27.6934 13.1518 27.0587 13.415 26.3121 13.415C25.945 13.415 25.5938 13.3556 25.2587 13.2369C24.9235 13.1181 24.638 12.9242 24.4022 12.655L17.258 16.645C17.2894 16.7717 17.3169 16.9181 17.3405 17.0844C17.3641 17.2506 17.3759 17.3911 17.3759 17.5057C17.3759 17.6204 17.3641 17.7391 17.3405 17.862C17.3169 17.9848 17.2894 18.1096 17.258 18.2362L24.4022 22.3212C24.638 22.0996 24.9131 21.9215 25.2275 21.7869C25.5418 21.6523 25.9034 21.585 26.3121 21.585C27.0587 21.585 27.6934 21.8482 28.216 22.3747C28.7387 22.9011 29 23.5404 29 24.2925C29 25.0446 28.7387 25.6839 28.216 26.2103C27.6934 26.7368 27.0587 27 26.3121 27ZM26.3129 11.99C26.6739 11.99 26.9762 11.867 27.2198 11.621C27.4635 11.3751 27.5853 11.0703 27.5853 10.7067C27.5853 10.3431 27.4632 10.0385 27.219 9.79313C26.9748 9.54771 26.6722 9.425 26.3112 9.425C25.9503 9.425 25.6479 9.54798 25.4043 9.79396C25.1607 10.0399 25.0388 10.3447 25.0388 10.7083C25.0388 11.0719 25.1609 11.3765 25.4051 11.6219C25.6493 11.8673 25.9519 11.99 26.3129 11.99ZM14.6888 18.7825C15.0497 18.7825 15.3521 18.6595 15.5957 18.4135C15.8393 18.1676 15.9612 17.8628 15.9612 17.4992C15.9612 17.1356 15.8391 16.831 15.5949 16.5856C15.3507 16.3402 15.0481 16.2175 14.6871 16.2175C14.3261 16.2175 14.0238 16.3405 13.7802 16.5865C13.5365 16.8324 13.4147 17.1372 13.4147 17.5008C13.4147 17.8644 13.5368 18.169 13.781 18.4144C14.0252 18.6598 14.3278 18.7825 14.6888 18.7825ZM26.3129 25.575C26.6739 25.575 26.9762 25.452 27.2198 25.206C27.4635 24.9601 27.5853 24.6553 27.5853 24.2917C27.5853 23.9281 27.4632 23.6235 27.219 23.3781C26.9748 23.1327 26.6722 23.01 26.3112 23.01C25.9503 23.01 25.6479 23.133 25.4043 23.379C25.1607 23.6249 25.0388 23.9297 25.0388 24.2933C25.0388 24.6569 25.1609 24.9615 25.4051 25.2069C25.6493 25.4523 25.9519 25.575 26.3129 25.575Z" fill="#C47ECC"/>
<defs>
<filter id="filter0_d_355_1087" x="0" y="0" width="43" height="43" filterUnits="userSpaceOnUse" color-interpolation-filters="sRGB">
<feFlood flood-opacity="0" result="BackgroundImageFix"/>
<feColorMatrix in="SourceAlpha" type="matrix" values="0 0 0 0 0 0 0 0 0 0 0 0 0 0 0 0 0 0 127 0" result="hardAlpha"/>
<feOffset dy="4"/>
<feGaussianBlur stdDeviation="2"/>
<feComposite in2="hardAlpha" operator="out"/>
<feColorMatrix type="matrix" values="0 0 0 0 0 0 0 0 0 0 0 0 0 0 0 0 0 0 0.1 0"/>
<feBlend mode="normal" in2="BackgroundImageFix" result="effect1_dropShadow_355_1087"/>
<feBlend mode="normal" in="SourceGraphic" in2="effect1_dropShadow_355_1087" result="shape"/>
</filter>
</defs>
</svg>
