<svg width="20" height="20" viewBox="0 0 20 20" fill="none" xmlns="http://www.w3.org/2000/svg">
<path d="M9.43758 14.1667H10.6876V9.16675H9.43758V14.1667ZM9.99971 7.62508C10.1944 7.62508 10.3577 7.56119 10.4897 7.43341C10.6216 7.30564 10.6876 7.1473 10.6876 6.95841C10.6876 6.75772 10.6217 6.58949 10.49 6.45373C10.3583 6.31796 10.1951 6.25008 10.0005 6.25008C9.80576 6.25008 9.64244 6.31796 9.5105 6.45373C9.37855 6.58949 9.31258 6.75772 9.31258 6.95841C9.31258 7.1473 9.37843 7.30564 9.51012 7.43341C9.64183 7.56119 9.80503 7.62508 9.99971 7.62508ZM10.0056 18.3334C8.85654 18.3334 7.77668 18.1147 6.76604 17.6772C5.7554 17.2397 4.87161 16.6424 4.11466 15.8855C3.35772 15.1286 2.7605 14.2442 2.323 13.2326C1.8855 12.2209 1.66675 11.1399 1.66675 9.98966C1.66675 8.8394 1.8855 7.75844 2.323 6.74677C2.7605 5.73509 3.35772 4.85425 4.11466 4.10425C4.87161 3.35425 5.75592 2.7605 6.7676 2.323C7.77927 1.8855 8.86023 1.66675 10.0105 1.66675C11.1608 1.66675 12.2417 1.8855 13.2534 2.323C14.2651 2.7605 15.1459 3.35425 15.8959 4.10425C16.6459 4.85425 17.2397 5.73619 17.6772 6.75008C18.1147 7.76397 18.3334 8.84546 18.3334 9.99454C18.3334 11.1436 18.1147 12.2235 17.6772 13.2341C17.2397 14.2448 16.6459 15.1273 15.8959 15.8817C15.1459 16.6361 14.264 17.2333 13.2501 17.6733C12.2362 18.1134 11.1547 18.3334 10.0056 18.3334ZM10.0105 17.0834C11.9758 17.0834 13.6459 16.3924 15.0209 15.0105C16.3959 13.6286 17.0834 11.9549 17.0834 9.98966C17.0834 8.02439 16.3972 6.35425 15.0248 4.97925C13.6524 3.60425 11.9775 2.91675 10.0001 2.91675C8.04175 2.91675 6.37161 3.60294 4.98966 4.97533C3.60772 6.34773 2.91675 8.02265 2.91675 10.0001C2.91675 11.9584 3.60772 13.6286 4.98966 15.0105C6.37161 16.3924 8.04522 17.0834 10.0105 17.0834Z" fill="#FF0000"/>
</svg>
