<svg width="21" height="14" viewBox="0 0 21 14" fill="none" xmlns="http://www.w3.org/2000/svg">
<path d="M0 6.87835C0 6.71092 0.0976105 6.48843 0.196655 6.38037L5.77936 0.225458C6.04004 -0.0541133 6.46234 -0.0864314 6.76607 0.197153C7.03769 0.450983 7.04453 0.945688 6.79335 1.22123L2.312 6.15411H20.2375C20.623 6.15411 20.9353 6.47836 20.9353 6.87814C20.9353 7.27816 20.6228 7.60214 20.2375 7.60214H2.312L6.79335 12.535C7.04453 12.8105 7.02675 13.2932 6.76607 13.5588C6.49103 13.8394 6.03589 13.8144 5.77936 13.5305L0.196655 7.37591C0.032608 7.20898 0.00268555 7.0483 0 6.87835Z" fill="#1D1D1D"/>
</svg>
