<svg width="36" height="36" viewBox="0 0 36 36" fill="none" xmlns="http://www.w3.org/2000/svg">
<path d="M10.5 27C8 27 5.875 26.125 4.125 24.375C2.375 22.625 1.5 20.5 1.5 18C1.5 15.5 2.375 13.375 4.125 11.625C5.875 9.875 8 9 10.5 9H25.5C28 9 30.125 9.875 31.875 11.625C33.625 13.375 34.5 15.5 34.5 18C34.5 20.5 33.625 22.625 31.875 24.375C30.125 26.125 28 27 25.5 27H10.5ZM10.5 24.75H25.5C27.375 24.75 28.9688 24.0938 30.2813 22.7813C31.5938 21.4688 32.25 19.875 32.25 18C32.25 16.125 31.5938 14.5312 30.2813 13.2188C28.9688 11.9062 27.375 11.25 25.5 11.25H10.5C8.625 11.25 7.03125 11.9062 5.71875 13.2188C4.40625 14.5312 3.75 16.125 3.75 18C3.75 19.875 4.40625 21.4688 5.71875 22.7813C7.03125 24.0938 8.625 24.75 10.5 24.75ZM25.5353 21.7875C26.5868 21.7875 27.4813 21.4195 28.2188 20.6835C28.9563 19.9474 29.325 19.0537 29.325 18.0022C29.325 16.9507 28.957 16.0563 28.221 15.3188C27.4849 14.5813 26.5912 14.2125 25.5397 14.2125C24.4882 14.2125 23.5938 14.5805 22.8563 15.3165C22.1188 16.0526 21.75 16.9463 21.75 17.9978C21.75 19.0493 22.118 19.9438 22.854 20.6813C23.5901 21.4188 24.4838 21.7875 25.5353 21.7875Z" fill="#484848"/>
</svg>
