<svg width="321" height="26" viewBox="0 0 321 26" fill="none" xmlns="http://www.w3.org/2000/svg">
<g style="mix-blend-mode:multiply" opacity="0.4">
<path d="M308.73 0.977249C305.955 0.977624 303.267 1.96971 301.123 3.78429C298.979 5.59888 297.513 8.12355 296.974 10.9277H246.364C245.827 8.12338 244.361 5.59826 242.217 3.78338C240.074 1.96851 237.385 0.976392 234.611 0.976392C231.836 0.976392 229.148 1.96851 227.004 3.78338C224.861 5.59826 223.395 8.12338 222.857 10.9277H172.253C171.714 8.12422 170.248 5.60027 168.104 3.78635C165.961 1.97244 163.273 0.980919 160.499 0.980919C157.725 0.980919 155.037 1.97244 152.893 3.78635C150.749 5.60027 149.283 8.12422 148.744 10.9277H98.1371C97.5995 8.12338 96.1338 5.59826 93.9902 3.78338C91.8467 1.96851 89.1582 0.976392 86.3838 0.976392C83.6093 0.976392 80.9208 1.96851 78.7773 3.78338C76.6338 5.59826 75.1681 8.12338 74.6304 10.9277H24.0236C23.4458 7.91938 21.8023 5.24017 19.4129 3.41153C17.0235 1.58289 14.0591 0.735657 11.0968 1.03472C8.1345 1.33378 5.38617 2.75774 3.38672 5.02946C1.38728 7.30119 0.279785 10.2581 0.279785 13.3248C0.279785 16.3914 1.38728 19.3483 3.38672 21.6201C5.38617 23.8918 8.1345 25.3158 11.0968 25.6148C14.0591 25.9139 17.0235 25.0666 19.4129 23.238C21.8023 21.4094 23.4458 18.7302 24.0236 15.7218H74.6304C75.1681 18.5262 76.6338 21.0513 78.7773 22.8661C80.9208 24.681 83.6093 25.6731 86.3838 25.6731C89.1582 25.6731 91.8467 24.681 93.9902 22.8661C96.1338 21.0513 97.5995 18.5262 98.1371 15.7218H148.757C149.297 18.5253 150.763 21.0493 152.907 22.8632C155.05 24.6771 157.738 25.6686 160.512 25.6686C163.286 25.6686 165.974 24.6771 168.118 22.8632C170.261 21.0493 171.728 18.5253 172.267 15.7218H222.86C223.398 18.5262 224.864 21.0513 227.007 22.8661C229.151 24.681 231.839 25.6731 234.614 25.6731C237.388 25.6731 240.077 24.681 242.22 22.8661C244.364 21.0513 245.829 18.5262 246.367 15.7218H296.974C297.415 18.0164 298.479 20.1346 300.044 21.8299C301.608 23.5251 303.607 24.7277 305.809 25.2975C308.011 25.8674 310.325 25.781 312.481 25.0485C314.637 24.316 316.547 22.9676 317.988 21.1601C319.429 19.3527 320.342 17.1607 320.621 14.8393C320.9 12.5179 320.533 10.1627 319.563 8.04789C318.593 5.9331 317.059 4.14575 315.142 2.89397C313.224 1.64219 311 0.977479 308.73 0.977249Z" fill="#CFE0F1"/>
</g>
</svg>
