<svg width="85" height="22" viewBox="0 0 85 22" fill="none" xmlns="http://www.w3.org/2000/svg">
<path d="M74.646 0.732422C72.2033 0.733967 69.8411 1.63208 67.983 3.26569C66.1249 4.8993 64.8924 7.16151 64.5068 9.64659H0.613525V13.0145H64.5068C64.8202 15.01 65.6816 16.8714 66.9893 18.3785C68.297 19.8856 69.9961 20.9754 71.8859 21.5191C73.7757 22.0628 75.7771 22.0376 77.6534 21.4465C79.5298 20.8554 81.2026 19.7232 82.4742 18.1836C83.7457 16.644 84.5628 14.7615 84.8288 12.7587C85.0948 10.7558 84.7986 8.7164 83.9752 6.88149C83.1519 5.04658 81.8358 3.49293 80.1825 2.40425C78.5293 1.31556 76.6081 0.73735 74.646 0.737992V0.732422Z" fill="#CFE0F1"/>
</svg>
