<svg width="35" height="36" viewBox="0 0 35 36" fill="none" xmlns="http://www.w3.org/2000/svg">
<path d="M17.4115 0.667725C14.0237 0.667725 10.7119 1.70279 7.8951 3.64202C5.07827 5.58125 2.88288 8.33754 1.58655 11.5623C0.29021 14.7871 -0.0488451 18.3355 0.612281 21.7588C1.27341 25.1821 2.90502 28.3266 5.30076 30.7945C7.69649 33.2624 10.7487 34.9429 14.0715 35.6235C17.3943 36.3041 20.8384 35.9543 23.9681 34.6181C27.0979 33.282 29.7728 31.0197 31.6546 28.1173C33.5364 25.2148 34.5405 21.8026 34.54 18.3122C34.5393 13.6323 32.7343 9.14441 29.5222 5.8355C26.31 2.5266 21.9538 0.667725 17.4115 0.667725ZM17.4115 31.9843C14.7869 31.9843 12.2212 31.1825 10.0389 29.6802C7.85666 28.1778 6.1558 26.0426 5.15141 23.5443C4.14702 21.046 3.88423 18.297 4.39626 15.6449C4.9083 12.9928 6.17216 10.5566 8.02803 8.64457C9.8839 6.73249 12.2484 5.43035 14.8226 4.90281C17.3967 4.37527 20.0649 4.64602 22.4897 5.68083C24.9146 6.71564 26.9871 8.46803 28.4452 10.7164C29.9034 12.9648 30.6817 15.6081 30.6817 18.3122C30.6831 20.1086 30.3409 21.8877 29.6746 23.5477C29.0084 25.2078 28.0311 26.7163 26.7987 27.9871C25.5663 29.2578 24.103 30.2659 22.4923 30.9537C20.8815 31.6415 19.155 31.9955 17.4115 31.9955V31.9843Z" fill="url(#paint0_linear_472_275)"/>
<defs>
<linearGradient id="paint0_linear_472_275" x1="17.4115" y1="-0.0732657" x2="17.4115" y2="36.628" gradientUnits="userSpaceOnUse">
<stop stop-color="white"/>
<stop offset="0.31" stop-color="#F8FCFF"/>
<stop offset="1" stop-color="#EBF7FF"/>
</linearGradient>
</defs>
</svg>
