<svg width="35" height="36" viewBox="0 0 35 36" fill="none" xmlns="http://www.w3.org/2000/svg">
<path d="M17.8155 0.667725C14.4277 0.667725 11.116 1.70279 8.29915 3.64202C5.48233 5.58125 3.28693 8.33754 1.9906 11.5623C0.694262 14.7871 0.355208 18.3355 1.01633 21.7588C1.67746 25.1821 3.30907 28.3266 5.70481 30.7945C8.10054 33.2624 11.1528 34.9429 14.4756 35.6235C17.7983 36.3041 21.2424 35.9543 24.3722 34.6181C27.502 33.282 30.1769 31.0197 32.0587 28.1173C33.9405 25.2148 34.9446 21.8026 34.944 18.3122C34.9433 13.6323 33.1384 9.14441 29.9262 5.8355C26.7141 2.5266 22.3578 0.667725 17.8155 0.667725ZM17.8155 31.9843C15.1909 31.9843 12.6253 31.1825 10.443 29.6802C8.26072 28.1778 6.55985 26.0426 5.55546 23.5443C4.55107 21.046 4.28828 18.297 4.80032 15.6449C5.31235 12.9928 6.57621 10.5566 8.43208 8.64457C10.2879 6.73249 12.6525 5.43035 15.2266 4.90281C17.8008 4.37527 20.469 4.64602 22.8938 5.68083C25.3186 6.71564 27.3911 8.46803 28.8493 10.7164C30.3074 12.9648 31.0857 15.6081 31.0857 18.3122C31.0871 20.1086 30.7449 21.8877 30.0787 23.5477C29.4124 25.2078 28.4352 26.7163 27.2028 27.9871C25.9704 29.2578 24.507 30.2659 22.8963 30.9537C21.2856 31.6415 19.5591 31.9955 17.8155 31.9955V31.9843Z" fill="url(#paint0_linear_472_272)"/>
<defs>
<linearGradient id="paint0_linear_472_272" x1="17.8155" y1="-0.0732657" x2="17.8155" y2="36.628" gradientUnits="userSpaceOnUse">
<stop stop-color="white"/>
<stop offset="0.31" stop-color="#F8FCFF"/>
<stop offset="1" stop-color="#EBF7FF"/>
</linearGradient>
</defs>
</svg>
