<svg width="244" height="22" viewBox="0 0 244 22" fill="none" xmlns="http://www.w3.org/2000/svg">
<path d="M233.614 0.732422C231.171 0.733967 228.809 1.63208 226.951 3.26569C225.092 4.8993 223.86 7.16151 223.474 9.64659H169.639C169.245 7.16885 168.009 4.91608 166.152 3.29055C164.295 1.66501 161.937 0.772565 159.5 0.772565C157.063 0.772565 154.705 1.66501 152.848 3.29055C150.991 4.91608 149.755 7.16885 149.361 9.64659H95.3824C94.9884 7.16885 93.7523 4.91608 91.8951 3.29055C90.0378 1.66501 87.6801 0.772565 85.2432 0.772565C82.8062 0.772565 80.4486 1.66501 78.5913 3.29055C76.734 4.91608 75.498 7.16885 75.104 9.64659H21.4067C20.9958 7.01923 19.6395 4.64772 17.6078 3.00435C15.5761 1.36099 13.0181 0.566359 10.4433 0.778711C7.86855 0.991063 5.46586 2.19482 3.71378 4.15024C1.96169 6.10567 0.98877 8.66928 0.98877 11.3305C0.98877 13.9918 1.96169 16.5554 3.71378 18.5108C5.46586 20.4663 7.86855 21.67 10.4433 21.8824C13.0181 22.0947 15.5761 21.3001 17.6078 19.6567C19.6395 18.0133 20.9958 15.6418 21.4067 13.0145H75.104C75.498 15.4922 76.734 17.745 78.5913 19.3705C80.4486 20.9961 82.8062 21.8885 85.2432 21.8885C87.6801 21.8885 90.0378 20.9961 91.8951 19.3705C93.7523 17.745 94.9884 15.4922 95.3824 13.0145H149.358C149.752 15.4922 150.988 17.745 152.845 19.3705C154.703 20.9961 157.06 21.8885 159.497 21.8885C161.934 21.8885 164.292 20.9961 166.149 19.3705C168.007 17.745 169.243 15.4922 169.637 13.0145H223.464C223.777 15.01 224.638 16.8714 225.946 18.3785C227.254 19.8856 228.953 20.9754 230.843 21.5191C232.733 22.0628 234.734 22.0376 236.61 21.4465C238.487 20.8554 240.159 19.7232 241.431 18.1836C242.702 16.644 243.52 14.7615 243.786 12.7587C244.052 10.7558 243.755 8.7164 242.932 6.88149C242.109 5.04658 240.793 3.49293 239.139 2.40425C237.486 1.31556 235.565 0.73735 233.603 0.737992L233.614 0.732422Z" fill="url(#paint0_linear_472_279)"/>
<defs>
<linearGradient id="paint0_linear_472_279" x1="0.985012" y1="11.3264" x2="243.896" y2="11.3264" gradientUnits="userSpaceOnUse">
<stop stop-color="#B878CB"/>
<stop offset="1" stop-color="#8C5CE3"/>
</linearGradient>
</defs>
</svg>
