<svg width="35" height="36" viewBox="0 0 35 36" fill="none" xmlns="http://www.w3.org/2000/svg">
<path d="M17.1497 0.667725C13.7619 0.667725 10.4502 1.70279 7.63338 3.64202C4.81655 5.58125 2.62116 8.33754 1.32483 11.5623C0.028491 14.7871 -0.310564 18.3355 0.350562 21.7588C1.01169 25.1821 2.6433 28.3266 5.03904 30.7945C7.43477 33.2624 10.487 34.9429 13.8098 35.6235C17.1326 36.3041 20.5766 35.9543 23.7064 34.6181C26.8362 33.282 29.5111 31.0197 31.3929 28.1173C33.2747 25.2148 34.2788 21.8026 34.2783 18.3122C34.2775 13.6323 32.4726 9.14441 29.2605 5.8355C26.0483 2.5266 21.692 0.667725 17.1497 0.667725ZM17.1497 31.9843C14.5251 31.9843 11.9595 31.1825 9.77722 29.6802C7.59495 28.1778 5.89408 26.0426 4.88969 23.5443C3.8853 21.046 3.62251 18.297 4.13455 15.6449C4.64658 12.9928 5.91044 10.5566 7.76631 8.64457C9.62218 6.73249 11.9867 5.43035 14.5609 4.90281C17.135 4.37527 19.8032 4.64602 22.228 5.68083C24.6528 6.71564 26.7254 8.46803 28.1835 10.7164C29.6417 12.9648 30.4199 15.6081 30.4199 18.3122C30.4214 20.1086 30.0792 21.8877 29.4129 23.5477C28.7467 25.2078 27.7694 26.7163 26.537 27.9871C25.3046 29.2578 23.8413 30.2659 22.2305 30.9537C20.6198 31.6415 18.8933 31.9955 17.1497 31.9955V31.9843Z" fill="url(#paint0_linear_472_274)"/>
<defs>
<linearGradient id="paint0_linear_472_274" x1="17.1498" y1="-0.0732657" x2="17.1498" y2="36.628" gradientUnits="userSpaceOnUse">
<stop stop-color="white"/>
<stop offset="0.31" stop-color="#F8FCFF"/>
<stop offset="1" stop-color="#EBF7FF"/>
</linearGradient>
</defs>
</svg>
