<svg width="36" height="36" viewBox="0 0 36 36" fill="none" xmlns="http://www.w3.org/2000/svg">
<path d="M17.9478 0.667725C14.56 0.667725 11.2483 1.70279 8.43148 3.64202C5.61465 5.58125 3.41926 8.33754 2.12292 11.5623C0.826587 14.7871 0.487532 18.3355 1.14866 21.7588C1.80978 25.1821 3.4414 28.3266 5.83713 30.7945C8.23287 33.2624 11.2851 34.9429 14.6079 35.6235C17.9307 36.3041 21.3747 35.9543 24.5045 34.6181C27.6343 33.282 30.3092 31.0197 32.191 28.1173C34.0728 25.2148 35.0769 21.8026 35.0763 18.3122C35.0756 13.6323 33.2707 9.14441 30.0586 5.8355C26.8464 2.5266 22.4901 0.667725 17.9478 0.667725ZM17.9478 31.9843C15.3232 31.9843 12.7576 31.1825 10.5753 29.6802C8.39304 28.1778 6.69217 26.0426 5.68778 23.5443C4.68339 21.046 4.42061 18.297 4.93264 15.6449C5.44467 12.9928 6.70853 10.5566 8.5644 8.64457C10.4203 6.73249 12.7848 5.43035 15.359 4.90281C17.9331 4.37527 20.6013 4.64602 23.0261 5.68083C25.4509 6.71564 27.5235 8.46803 28.9816 10.7164C30.4397 12.9648 31.218 15.6081 31.218 18.3122C31.2195 20.1086 30.8773 21.8877 30.211 23.5477C29.5448 25.2078 28.5675 26.7163 27.3351 27.9871C26.1027 29.2578 24.6393 30.2659 23.0286 30.9537C21.4179 31.6415 19.6914 31.9955 17.9478 31.9955V31.9843Z" fill="url(#paint0_linear_472_273)"/>
<defs>
<linearGradient id="paint0_linear_472_273" x1="17.9478" y1="-0.0732657" x2="17.9478" y2="36.628" gradientUnits="userSpaceOnUse">
<stop stop-color="white"/>
<stop offset="0.31" stop-color="#F8FCFF"/>
<stop offset="1" stop-color="#EBF7FF"/>
</linearGradient>
</defs>
</svg>
