<svg width="324" height="28" viewBox="0 0 324 28" fill="none" xmlns="http://www.w3.org/2000/svg">
<path d="M310.727 27.9955C307.839 27.991 305.03 27.0174 302.727 25.2221C300.423 23.4268 298.75 20.9074 297.96 18.0451H249.381C248.595 20.9099 246.923 23.4321 244.618 25.2283C242.314 27.0245 239.503 27.9964 236.614 27.9964C233.724 27.9964 230.913 27.0245 228.609 25.2283C226.305 23.4321 224.632 20.9099 223.846 18.0451H175.267C174.481 20.9095 172.808 23.431 170.503 25.2266C168.199 27.0223 165.388 27.9939 162.499 27.9939C159.609 27.9939 156.799 27.0223 154.494 25.2266C152.19 23.431 150.517 20.9095 149.73 18.0451H101.151C100.365 20.9099 98.6929 23.4321 96.3885 25.2283C94.084 27.0245 91.2734 27.9964 88.3838 27.9964C85.4942 27.9964 82.6836 27.0245 80.3792 25.2283C78.0748 23.4321 76.4025 20.9099 75.6165 18.0451H27.0376C26.1655 21.2211 24.2078 23.9648 21.5257 25.7698C18.8436 27.5749 15.6183 28.3194 12.4451 27.8658C9.27185 27.4123 6.36501 25.7914 4.26111 23.3023C2.1572 20.8132 0.998291 17.624 0.998291 14.3234C0.998291 11.0228 2.1572 7.83357 4.26111 5.34449C6.36501 2.85541 9.27185 1.2345 12.4451 0.780974C15.6183 0.327443 18.8436 1.07191 21.5257 2.87695C24.2078 4.68199 26.1655 7.42575 27.0376 10.6017H75.6165C76.4025 7.73686 78.0748 5.21468 80.3792 3.41851C82.6836 1.62234 85.4942 0.650391 88.3838 0.650391C91.2734 0.650391 94.084 1.62234 96.3885 3.41851C98.6929 5.21468 100.365 7.73686 101.151 10.6017H149.73C150.517 7.73734 152.19 5.2158 154.494 3.42017C156.799 1.62453 159.609 0.652918 162.499 0.652918C165.388 0.652918 168.199 1.62453 170.503 3.42017C172.808 5.2158 174.481 7.73734 175.267 10.6017H223.846C224.632 7.73686 226.305 5.21468 228.609 3.41851C230.913 1.62234 233.724 0.650391 236.614 0.650391C239.503 0.650391 242.314 1.62234 244.618 3.41851C246.923 5.21468 248.595 7.73686 249.381 10.6017H297.96C298.632 8.15393 299.954 5.94786 301.776 4.23162C303.599 2.51538 305.85 1.35704 308.276 0.886854C310.703 0.416671 313.209 0.653299 315.512 1.57013C317.815 2.48695 319.824 4.04762 321.313 6.07661C322.803 8.1056 323.713 10.5224 323.942 13.0553C324.171 15.5882 323.71 18.1367 322.61 20.4142C321.51 22.6917 319.815 24.6078 317.716 25.9472C315.616 27.2865 313.196 27.9959 310.727 27.9955Z" fill="#CFE0F1"/>
</svg>
